<svg width="34" height="20" viewBox="0 0 34 20" fill="none" xmlns="http://www.w3.org/2000/svg">
<path d="M28.3334 16.6667L5.00004 16.6667C4.55801 16.6667 4.13409 16.8423 3.82153 17.1548C3.50897 17.4674 3.33337 17.8913 3.33337 18.3333C3.33337 18.7754 3.50897 19.1993 3.82153 19.5118C4.13409 19.8244 4.55801 20 5.00004 20L28.3334 20C28.7754 20 29.1993 19.8244 29.5119 19.5118C29.8244 19.1993 30 18.7754 30 18.3333C30 17.8913 29.8244 17.4674 29.5119 17.1548C29.1993 16.8423 28.7754 16.6667 28.3334 16.6667ZM1.66671 11.6667L31.6667 11.6667C32.1087 11.6667 32.5327 11.4911 32.8452 11.1785C33.1578 10.8659 33.3334 10.442 33.3334 10C33.3334 9.55797 33.1578 9.13405 32.8452 8.82149C32.5327 8.50893 32.1087 8.33333 31.6667 8.33333L1.66671 8.33333C1.22468 8.33333 0.800754 8.50893 0.488196 8.82149C0.175635 9.13405 4.10488e-05 9.55797 4.10874e-05 10C4.11261e-05 10.442 0.175635 10.866 0.488197 11.1785C0.800754 11.4911 1.22468 11.6667 1.66671 11.6667ZM5.00004 3.33333L28.3334 3.33333C28.7754 3.33333 29.1993 3.15774 29.5119 2.84518C29.8244 2.53262 30 2.10869 30 1.66666C30 1.22464 29.8244 0.800711 29.5119 0.48815C29.1993 0.175591 28.7754 -3.41623e-06 28.3334 -3.37758e-06L5.00004 -1.33772e-06C4.55801 -1.29908e-06 4.13409 0.175593 3.82153 0.488152C3.50897 0.800713 3.33337 1.22464 3.33337 1.66667C3.33337 2.10869 3.50897 2.53262 3.82153 2.84518C4.13409 3.15774 4.55801 3.33333 5.00004 3.33333Z" fill="white"/>
</svg>
